<?xml version="1.0" encoding="utf-8"?>
<!-- Generator: Adobe Illustrator 23.0.0, SVG Export Plug-In . SVG Version: 6.00 Build 0)  -->
<svg version="1.1" id="Layer_1" xmlns="http://www.w3.org/2000/svg" xmlns:xlink="http://www.w3.org/1999/xlink" x="0px" y="0px"
	 viewBox="0 0 86.17 22.35" style="enable-background:new 0 0 86.17 22.35;" xml:space="preserve">
<style type="text/css">
	.st0{fill:#FFFFFF;}
	.st1{fill:#005596;}
	.st2{fill:#F2A713;}
	.st3{fill:#FFB600;}
	.st4{fill:#F7981D;}
	.st5{fill:#FF8500;}
	.st6{fill:#FF5050;}
	.st7{fill:#E52836;}
	.st8{fill:#CB2026;}
	.st9{fill:#DCE5E5;}
	.st10{fill:url(#SVGID_1_);}
	.st11{fill:#137BB9;}
</style>
<path class="st0" d="M83.59,22.27H2.41c-1.25,0-2.26-1.01-2.26-2.26V2.44c0-1.25,1.01-2.26,2.26-2.26h81.18
	c1.25,0,2.26,1.01,2.26,2.26v17.57C85.85,21.26,84.84,22.27,83.59,22.27z"/>
<g>
	<g>
		<g>
			<path class="st11" d="M8.29,11.74c1.34,0,2.43-0.53,3.28-1.59l1.75,1.8c-1.39,1.56-3.02,2.34-4.9,2.34s-3.43-0.59-4.65-1.78
				s-1.83-2.69-1.83-4.5s0.62-3.32,1.86-4.53s2.76-1.82,4.55-1.82c2,0,3.68,0.76,5.03,2.29L11.7,5.87
				c-0.86-1.07-1.93-1.61-3.21-1.61c-1.03,0-1.9,0.33-2.63,1C5.12,5.93,4.76,6.84,4.76,7.97s0.34,2.05,1.03,2.73
				S7.31,11.74,8.29,11.74z"/>
			<path class="st11" d="M25.62,14.15l-1.14-2.64h-5.12l-1.14,2.64h-2.9L20.6,1.94h2.64l5.27,12.21H25.62z M21.93,5.57l-1.54,3.55
				h3.06L21.93,5.57z"/>
			<path class="st11" d="M34.23,4.37c-0.26,0.22-0.39,0.5-0.39,0.86S34,5.87,34.32,6.08c0.32,0.21,1.06,0.46,2.22,0.74
				c1.16,0.29,2.06,0.71,2.7,1.28c0.64,0.57,0.96,1.4,0.96,2.5s-0.41,1.98-1.23,2.66c-0.82,0.68-1.9,1.02-3.24,1.02
				c-1.93,0-3.67-0.72-5.22-2.15l1.62-1.99c1.32,1.15,2.53,1.73,3.65,1.73c0.5,0,0.89-0.11,1.18-0.32c0.28-0.21,0.43-0.51,0.43-0.87
				c0-0.37-0.15-0.66-0.45-0.87c-0.3-0.22-0.9-0.43-1.8-0.66c-1.42-0.34-2.46-0.78-3.12-1.32c-0.66-0.54-0.99-1.39-0.99-2.55
				s0.42-2.05,1.25-2.68c0.83-0.63,1.87-0.94,3.12-0.94c0.81,0,1.63,0.14,2.44,0.42s1.53,0.68,2.13,1.19l-1.38,1.99
				c-1.06-0.8-2.15-1.21-3.28-1.21C34.85,4.05,34.5,4.16,34.23,4.37z"/>
			<path class="st11" d="M51.64,1.94h2.72v12.21h-2.72v-4.8h-4.86v4.8h-2.72V1.94h2.72v5.1h4.86V1.94z"/>
		</g>
		<g>
			<path class="st11" d="M7.08,20.08c-0.48,0.47-1.07,0.7-1.77,0.7c-0.7,0-1.29-0.23-1.77-0.7c-0.48-0.47-0.72-1.05-0.72-1.75
				c0-0.7,0.24-1.28,0.72-1.75s1.07-0.7,1.77-0.7c0.7,0,1.3,0.23,1.77,0.7s0.72,1.05,0.72,1.75C7.8,19.03,7.56,19.62,7.08,20.08z
				 M6.5,17.12c-0.32-0.33-0.72-0.5-1.19-0.5s-0.87,0.17-1.19,0.5c-0.32,0.33-0.48,0.74-0.48,1.22c0,0.48,0.16,0.88,0.48,1.22
				c0.32,0.33,0.72,0.5,1.19,0.5s0.87-0.17,1.19-0.5c0.32-0.33,0.48-0.74,0.48-1.22C6.98,17.86,6.82,17.46,6.5,17.12z"/>
			<path class="st11" d="M12.95,16h0.8v4.73h-0.87l-2.68-3.45v3.45H9.4V16h0.8l2.75,3.53V16z"/>
			<path class="st11" d="M21.69,16.62c0.46,0.41,0.68,0.99,0.68,1.72c0,0.74-0.22,1.32-0.66,1.75c-0.44,0.43-1.12,0.64-2.03,0.64
				h-1.57V16h1.63C20.58,16,21.24,16.21,21.69,16.62z M21.57,18.37c0-1.08-0.62-1.63-1.86-1.63h-0.8v3.24h0.89
				c0.57,0,1.01-0.14,1.32-0.41C21.42,19.3,21.57,18.9,21.57,18.37z"/>
			<path class="st11" d="M27.33,16v0.75H24.8v1.25h2.27v0.71H24.8v1.27h2.61v0.75H24V16H27.33z"/>
			<path class="st11" d="M29.02,20.74V16h0.8v3.97h2.16v0.76H29.02z"/>
			<path class="st11" d="M33.45,16h0.8v4.73h-0.8V16z"/>
			<path class="st11" d="M38.32,20.74h-0.89L35.52,16h0.89l1.46,3.53L39.33,16h0.89L38.32,20.74z"/>
			<path class="st11" d="M44.82,16v0.75h-2.53v1.25h2.27v0.71h-2.27v1.27h2.61v0.75H41.5V16H44.82z"/>
			<path class="st11" d="M50.3,17.54c0,0.78-0.34,1.27-1.02,1.48l1.24,1.72H49.5l-1.13-1.59h-1.05v1.59h-0.8V16h1.76
				c0.72,0,1.24,0.12,1.55,0.37C50.14,16.61,50.3,17,50.3,17.54z M49.23,18.21c0.16-0.14,0.25-0.36,0.25-0.67
				c0-0.31-0.08-0.52-0.25-0.64c-0.17-0.12-0.47-0.17-0.89-0.17h-1.01v1.69h0.99C48.76,18.42,49.07,18.35,49.23,18.21z"/>
			<path class="st11" d="M53.82,20.74H53v-1.87L51.24,16h0.87l1.29,2.15L54.7,16h0.87l-1.76,2.86V20.74z"/>
		</g>
	</g>
	<g>
		<g>
			<path class="st11" d="M57.97,14.4V2.9c0-0.64,0.52-1.16,1.16-1.16h11.49c0.64,0,1.16,0.52,1.16,1.16v11.5
				c0,0.21-0.17,0.39-0.39,0.39H58.35C58.14,14.78,57.97,14.61,57.97,14.4L57.97,14.4z M67.25,18.34c0,1.33-1.07,2.4-2.4,2.4
				c-1.33,0-2.4-1.07-2.4-2.4s1.07-2.4,2.4-2.4C66.17,15.94,67.25,17.01,67.25,18.34L67.25,18.34z M66.05,18.34
				c0-0.66-0.54-1.2-1.2-1.2c-0.66,0-1.2,0.54-1.2,1.2s0.54,1.2,1.2,1.2C65.51,19.54,66.05,19,66.05,18.34L66.05,18.34z
				 M62.78,15.94h-5.38c-0.21,0-0.39,0.17-0.39,0.39v1.17c0,0.21,0.17,0.39,0.39,0.39h4.31C61.83,17.11,62.22,16.42,62.78,15.94
				L62.78,15.94z M79.8,18.34c0,1.33-1.07,2.4-2.4,2.4c-1.33,0-2.4-1.07-2.4-2.4s1.07-2.4,2.4-2.4
				C78.73,15.94,79.8,17.01,79.8,18.34L79.8,18.34z M78.6,18.34c0-0.66-0.54-1.2-1.2-1.2c-0.66,0-1.2,0.54-1.2,1.2s0.54,1.2,1.2,1.2
				C78.07,19.54,78.6,19,78.6,18.34L78.6,18.34z M84.05,16.32v1.17c0,0.21-0.17,0.39-0.39,0.39h-3.12
				c-0.22-1.53-1.54-2.71-3.13-2.71c-1.59,0-2.91,1.18-3.13,2.71h-6.29c-0.11-0.77-0.5-1.45-1.07-1.94h5.96V4.91
				c0-0.43,0.35-0.77,0.77-0.77h3.64c1.03,0,1.98,0.51,2.56,1.36l2.35,3.48c0.34,0.51,0.53,1.11,0.53,1.73v5.24h0.94
				C83.87,15.94,84.05,16.11,84.05,16.32L84.05,16.32z M80.13,9.06l-1.88-2.67c-0.07-0.1-0.19-0.16-0.32-0.16h-2.93
				c-0.21,0-0.39,0.17-0.39,0.39v2.67c0,0.21,0.17,0.39,0.39,0.39h4.8C80.13,9.67,80.31,9.31,80.13,9.06L80.13,9.06z M80.13,9.06"/>
		</g>
	</g>
</g>
</svg>
