<svg version="1.1" xmlns="http://www.w3.org/2000/svg" xmlns:xlink="http://www.w3.org/1999/xlink" preserveAspectRatio="xMidYMid meet" viewBox="0 0 534 109" width="97" height="20"><defs><path d="M37.17 94.81L37.17 57.65L0 57.65L0 94.81L0 94.81L37.17 94.81Z" id="c4PgwVa4cc"></path><path d="M107.4 94.81L107.4 37.75L165.34 37.75L165.34 94.81L149.25 94.81L149.25 48.87L123.49 48.87L123.49 94.81L123.49 94.81L107.4 94.81Z" id="b3O5Cy9n84"></path><path d="M198.99 60.28C203.38 60.28 210.41 62.62 210.41 74.04C210.41 81.06 207.48 88.08 198.99 88.08C190.21 88.08 187.29 81.06 187.29 74.04C187.29 74.04 187.29 74.04 187.29 74.04C191.97 64.87 195.87 60.28 198.99 60.28ZM173.24 53.55L173.24 109.74L188.17 109.74C188.17 98.15 188.17 91.71 188.17 90.43C193.14 95.69 201.34 96.28 203.09 96.28C217.14 96.28 225.92 87.21 225.92 74.33C225.92 60.58 217.43 52.09 203.38 52.09C199.87 52.09 193.14 52.67 187.29 58.53C187.27 58.53 187.17 58.53 187 58.53L187 53.55L173.24 53.55L173.24 53.55L173.24 53.55Z" id="bpN4K0XNV"></path><path d="M245.82 96.28C229.72 96.28 229.14 84.28 229.14 79.3C229.14 77.59 229.14 69 229.14 53.55L244.06 53.55C244.06 67.95 244.06 75.95 244.06 77.55C244.06 85.74 246.99 88.08 252.25 88.08C261.62 88.08 262.2 79.6 262.2 76.67C262.2 75.13 262.2 67.42 262.2 53.55L277.13 53.55L277.13 94.81L262.2 94.81L262.2 89.84L262.5 89.84C255.28 94.13 249.72 96.28 245.82 96.28Z" id="b20Q2NzpAw"></path><path d="M306.39 61.75C310.49 61.75 314.29 62.33 314.29 65.84C314.29 69.65 308.73 69.65 306.1 69.65C305.59 69.65 303.06 69.65 298.49 69.65L298.49 61.75L298.49 61.75C303.23 61.75 305.87 61.75 306.39 61.75ZM283.86 53.55L283.86 94.81C301.59 94.81 311.45 94.81 313.42 94.81C324.24 94.81 331.56 92.77 331.56 84.28C331.56 77.84 328.05 74.92 319.85 73.45C319.85 73.42 319.85 73.19 319.85 73.16C325.12 72.57 329.8 69.06 329.8 63.5C329.8 53.55 318.1 53.55 313.42 53.55C311.45 53.55 301.59 53.55 283.86 53.55L283.86 53.55L283.86 53.55ZM298.49 77.26C303.93 77.26 306.96 77.26 307.56 77.26C314.59 77.26 316.05 79.3 316.05 82.23C316.05 83.99 315.17 86.33 307.86 86.33C307.23 86.33 304.11 86.33 298.49 86.33L298.49 77.26L298.49 77.26L298.49 77.26Z" id="aCFgnmKj"></path><path d="M356.43 87.79C353.8 87.79 348.82 86.91 348.82 83.11C348.82 78.43 354.39 77.55 357.6 77.26C363.46 76.38 362.87 76.67 367.26 75.21C367.26 75.36 367.26 76.14 367.26 77.55L367.26 77.55C362.38 84.38 358.77 87.79 356.43 87.79ZM350 66.72C350 60.58 356.43 60.28 359.07 60.28C360.82 60.28 366.97 60.28 366.97 65.84C366.97 66.14 366.97 66.72 366.97 67.01C366.68 71.11 362.87 70.23 351.75 71.7C342.68 72.87 333.32 75.21 333.32 84.57C333.32 88.08 334.78 96.57 350.58 96.57C356.73 96.57 363.16 95.11 367.26 91.01C367.28 91.01 367.38 91.01 367.55 91.01L368.72 95.11L384.23 95.11C384.23 94.76 384.23 94.56 384.23 94.52C381.31 93.94 381.31 91.3 381.31 86.62C381.34 84.75 381.57 69.76 381.6 67.89C381.6 63.21 381.31 52.38 358.77 52.38C353.51 52.38 336.24 52.97 335.36 67.31C336.34 67.31 341.22 67.31 350 67.31L350 66.72C350 66.72 350 66.72 350 66.72Z" id="aWtY9h8S4"></path><path d="M383.65 53.55L431.06 53.55L431.06 61.75L414.67 61.75L414.67 94.81L399.74 94.81L399.74 61.75L383.65 61.75L383.65 61.75L383.65 53.55Z" id="cgWplQlF"></path><path d="M0 46.24C5.97 46.24 9.29 46.24 9.95 46.24C35.7 46.24 48.87 59.41 48.87 85.16C48.87 85.82 48.87 89.14 48.87 95.11L95.11 95.11L95.11 0L0 0L0 0L0 46.24ZM75.21 19.61C75.21 32.19 75.21 62.62 75.21 75.21C71.7 75.21 71.11 75.21 67.6 75.21C64.38 47.7 47.11 30.43 19.61 27.22C19.61 23.7 19.61 23.12 19.61 19.61C32.19 19.61 62.62 19.61 75.21 19.61C75.21 19.61 75.21 19.61 75.21 19.61C75.21 19.61 75.21 19.61 75.21 19.61Z" id="d21MXDuNdf"></path><path d="M480.51 81.94L480.51 93.64C454.17 93.64 439.54 93.64 436.62 93.64C437.2 89.25 438.66 85.16 441.01 81.06C443.35 76.96 448.03 71.99 455.05 65.26C460.61 59.99 464.12 56.48 465.59 54.43C467.34 51.8 468.22 49.16 468.22 46.82C468.22 43.9 467.34 41.85 465.88 40.38C464.42 38.92 462.37 38.04 459.73 38.04C457.1 38.04 455.05 38.92 453.59 40.38C452.13 41.85 451.25 44.48 450.96 48.29C449.7 48.17 439.63 47.23 438.37 47.11C439.25 40.09 441.59 35.12 445.4 32.19C449.2 29.26 454.17 27.8 460.03 27.8C466.47 27.8 471.44 29.56 475.24 33.07C479.05 36.58 480.8 40.97 480.8 45.94C480.8 48.87 480.22 51.8 479.34 54.43C478.17 57.06 476.71 59.99 474.37 62.92C472.9 64.97 469.98 67.6 466.17 71.4C462.08 74.92 459.73 77.55 458.56 78.72C457.39 79.89 456.52 81.06 455.93 82.23C457.57 82.23 465.76 82.23 480.51 82.23L480.51 81.94Z" id="a1uleVrmbA"></path><path d="M513.58 80.48L486.66 80.48L486.66 69.36L515.04 27.8L525.58 27.8L525.58 69.36L533.77 69.36L533.77 80.48L525.58 80.48L525.58 93.64L513.58 93.64L513.58 80.48ZM513.58 47.11L498.66 69.36L513.58 69.36L513.58 47.11Z" id="aaaYqs41y"></path></defs><g><g><g><use xlink:href="#c4PgwVa4cc" opacity="1" fill="#222221" fill-opacity="1"></use><g><use xlink:href="#c4PgwVa4cc" opacity="1" fill-opacity="0" stroke="#000000" stroke-width="1" stroke-opacity="0"></use></g></g><g><use xlink:href="#b3O5Cy9n84" opacity="1" fill="#89af39" fill-opacity="1"></use><g><use xlink:href="#b3O5Cy9n84" opacity="1" fill-opacity="0" stroke="#000000" stroke-width="1" stroke-opacity="0"></use></g></g><g><use xlink:href="#bpN4K0XNV" opacity="1" fill="#89af39" fill-opacity="1"></use><g><use xlink:href="#bpN4K0XNV" opacity="1" fill-opacity="0" stroke="#000000" stroke-width="1" stroke-opacity="0"></use></g></g><g><use xlink:href="#b20Q2NzpAw" opacity="1" fill="#89af39" fill-opacity="1"></use><g><use xlink:href="#b20Q2NzpAw" opacity="1" fill-opacity="0" stroke="#000000" stroke-width="1" stroke-opacity="0"></use></g></g><g><use xlink:href="#aCFgnmKj" opacity="1" fill="#89af39" fill-opacity="1"></use><g><use xlink:href="#aCFgnmKj" opacity="1" fill-opacity="0" stroke="#000000" stroke-width="1" stroke-opacity="0"></use></g></g><g><use xlink:href="#aWtY9h8S4" opacity="1" fill="#89af39" fill-opacity="1"></use><g><use xlink:href="#aWtY9h8S4" opacity="1" fill-opacity="0" stroke="#000000" stroke-width="1" stroke-opacity="0"></use></g></g><g><use xlink:href="#cgWplQlF" opacity="1" fill="#89af39" fill-opacity="1"></use><g><use xlink:href="#cgWplQlF" opacity="1" fill-opacity="0" stroke="#000000" stroke-width="1" stroke-opacity="0"></use></g></g><g><use xlink:href="#d21MXDuNdf" opacity="1" fill="#89af39" fill-opacity="1"></use><g><use xlink:href="#d21MXDuNdf" opacity="1" fill-opacity="0" stroke="#000000" stroke-width="1" stroke-opacity="0"></use></g></g><g><use xlink:href="#a1uleVrmbA" opacity="1" fill="#000000" fill-opacity="1"></use><g><use xlink:href="#a1uleVrmbA" opacity="1" fill-opacity="0" stroke="#000000" stroke-width="1" stroke-opacity="0"></use></g></g><g><use xlink:href="#aaaYqs41y" opacity="1" fill="#000000" fill-opacity="1"></use><g><use xlink:href="#aaaYqs41y" opacity="1" fill-opacity="0" stroke="#000000" stroke-width="1" stroke-opacity="0"></use></g></g></g></g></svg>